<svg width="232" height="54" viewBox="0 0 232 54" fill="none" xmlns="http://www.w3.org/2000/svg">
<path d="M0.0236206 0H15.5003C18.3079 0 20.2907 0.600629 21.4488 1.80189C22.642 3.00315 23.2387 4.59305 23.2387 6.5716V10.9173C23.2387 12.2952 23.0632 13.4965 22.7122 14.5211C22.3964 15.5457 21.7296 16.3407 20.7118 16.906C21.7296 17.3653 22.3964 18.0542 22.7122 18.9728C23.0632 19.8914 23.2387 21.022 23.2387 22.3646V27.4523C23.2387 29.4309 22.642 31.0208 21.4488 32.222C20.2907 33.4233 18.3079 34.0239 15.5003 34.0239H0.0236206V0ZM14.1843 26.7633V21.1987C14.1843 20.81 14.079 20.5274 13.8684 20.3507C13.6578 20.1388 13.3244 20.0328 12.8682 20.0328H9.07801V27.9293H12.8682C13.3244 27.9293 13.6578 27.841 13.8684 27.6643C14.079 27.4523 14.1843 27.152 14.1843 26.7633ZM14.1843 12.7722V7.26055C14.1843 6.87191 14.079 6.58926 13.8684 6.4126C13.6578 6.20062 13.3244 6.09462 12.8682 6.09462H9.07801V13.9381H12.8682C13.3244 13.9381 13.6578 13.8498 13.8684 13.6732C14.079 13.4612 14.1843 13.1609 14.1843 12.7722Z" fill="white"/>
<path d="M29.2234 0H38.4357V34.0239H29.2234V0ZM32.2766 34.0239V27.3993H48.9114V34.0239H32.2766Z" fill="white"/>
<path d="M73.7649 22.3646V28.9362H56.8669V22.3646H73.7649ZM79.5555 34.0239H70.2906L65.2369 10.1224L60.0254 34.0239H50.971L59.6569 0H70.8696L79.5555 34.0239Z" fill="white"/>
<path d="M92.665 7.26055V26.7633C92.665 27.152 92.7702 27.4523 92.9808 27.6643C93.1914 27.841 93.5248 27.9293 93.981 27.9293H95.3497V34.0239H91.191C88.3834 34.0239 86.383 33.4233 85.1898 32.222C84.0317 31.0208 83.4526 29.4309 83.4526 27.4523V6.5716C83.4526 4.59305 84.0317 3.00315 85.1898 1.80189C86.383 0.600629 88.3834 0 91.191 0H95.3497V6.09462H93.981C93.5248 6.09462 93.1914 6.20062 92.9808 6.4126C92.7702 6.58926 92.665 6.87191 92.665 7.26055ZM97.1395 12.7192V7.26055C97.1395 6.87191 97.0342 6.58926 96.8237 6.4126C96.6131 6.20062 96.2797 6.09462 95.8235 6.09462H94.4548V0H98.6135C101.421 0 103.404 0.600629 104.562 1.80189C105.755 3.00315 106.352 4.59305 106.352 6.5716V12.7192H97.1395ZM97.1395 26.7633V21.5167H106.352V27.4523C106.352 29.4309 105.755 31.0208 104.562 32.222C103.404 33.4233 101.421 34.0239 98.6135 34.0239H94.4548V27.9293H95.8235C96.2797 27.9293 96.6131 27.841 96.8237 27.6643C97.0342 27.4523 97.1395 27.152 97.1395 26.7633Z" fill="white"/>
<path d="M121.101 16.641H130.682L137.315 34.0239H127.418L121.101 16.641ZM130.682 16.641H121.101L127.365 0H137.262L130.682 16.641ZM111.836 0H121.048V34.0239H111.836V0Z" fill="white"/>
<path d="M141.807 0H151.019V34.0239H141.807V0ZM144.86 34.0239V27.3993H161.495V34.0239H144.86Z" fill="white"/>
<path d="M165.66 0H174.873V34.0239H165.66V0Z" fill="white"/>
<path d="M196.558 0H204.981V34.0239H197.084L189.557 16.164V34.0239H181.134V0H189.03L196.558 18.1779V0Z" fill="white"/>
<path d="M211.259 0H220.471V34.0239H211.259V0ZM230 13.5672V20.1918H215.207V13.5672H230ZM231.526 0V6.62459H214.523V0H231.526ZM232 27.3993V34.0239H214.523V27.3993H232Z" fill="white"/>
<path d="M54.3675 47.9306V46.6708H60.263V47.9306H58.0653V53.8977H56.5652V47.9306H54.3675Z" fill="#FFCC00"/>
<path d="M64.4729 53.8977H62.8466L65.3247 46.6708H67.2805L69.7551 53.8977H68.1287L66.3306 48.3223H66.2745L64.4729 53.8977ZM64.3713 51.057H68.2129V52.2498H64.3713V51.057Z" fill="#FFCC00"/>
<path d="M72.3474 47.9306V46.6708H78.243V47.9306H76.0453V53.8977H74.5451V47.9306H72.3474Z" fill="#FFCC00"/>
<path d="M81.8193 47.9306V46.6708H87.7149V47.9306H85.5172V53.8977H84.017V47.9306H81.8193Z" fill="#FFCC00"/>
<path d="M97.8335 50.2843C97.8335 51.0723 97.6851 51.7428 97.3884 52.2956C97.0939 52.8485 96.692 53.2707 96.1826 53.5624C95.6755 53.8518 95.1054 53.9965 94.4721 53.9965C93.8342 53.9965 93.2617 53.8506 92.7546 53.5589C92.2476 53.2672 91.8468 52.8449 91.5524 52.2921C91.258 51.7393 91.1107 51.07 91.1107 50.2843C91.1107 49.4962 91.258 48.8257 91.5524 48.2729C91.8468 47.72 92.2476 47.299 92.7546 47.0096C93.2617 46.7179 93.8342 46.572 94.4721 46.572C95.1054 46.572 95.6755 46.7179 96.1826 47.0096C96.692 47.299 97.0939 47.72 97.3884 48.2729C97.6851 48.8257 97.8335 49.4962 97.8335 50.2843ZM96.2948 50.2843C96.2948 49.7738 96.2188 49.3433 96.0669 48.9927C95.9174 48.6422 95.7059 48.3764 95.4325 48.1953C95.1591 48.0141 94.839 47.9235 94.4721 47.9235C94.1053 47.9235 93.7851 48.0141 93.5117 48.1953C93.2383 48.3764 93.0257 48.6422 92.8738 48.9927C92.7243 49.3433 92.6495 49.7738 92.6495 50.2843C92.6495 50.7947 92.7243 51.2252 92.8738 51.5758C93.0257 51.9263 93.2383 52.1921 93.5117 52.3733C93.7851 52.5544 94.1053 52.645 94.4721 52.645C94.839 52.645 95.1591 52.5544 95.4325 52.3733C95.7059 52.1921 95.9174 51.9263 96.0669 51.5758C96.2188 51.2252 96.2948 50.7947 96.2948 50.2843Z" fill="#FFCC00"/>
<path d="M108.433 50.2843C108.433 51.0723 108.285 51.7428 107.988 52.2956C107.694 52.8485 107.292 53.2707 106.782 53.5624C106.275 53.8518 105.705 53.9965 105.072 53.9965C104.434 53.9965 103.861 53.8506 103.354 53.5589C102.847 53.2672 102.447 52.8449 102.152 52.2921C101.858 51.7393 101.71 51.07 101.71 50.2843C101.71 49.4962 101.858 48.8257 102.152 48.2729C102.447 47.72 102.847 47.299 103.354 47.0096C103.861 46.7179 104.434 46.572 105.072 46.572C105.705 46.572 106.275 46.7179 106.782 47.0096C107.292 47.299 107.694 47.72 107.988 48.2729C108.285 48.8257 108.433 49.4962 108.433 50.2843ZM106.894 50.2843C106.894 49.7738 106.819 49.3433 106.667 48.9927C106.517 48.6422 106.306 48.3764 106.032 48.1953C105.759 48.0141 105.439 47.9235 105.072 47.9235C104.705 47.9235 104.385 48.0141 104.111 48.1953C103.838 48.3764 103.625 48.6422 103.473 48.9927C103.324 49.3433 103.249 49.7738 103.249 50.2843C103.249 50.7947 103.324 51.2252 103.473 51.5758C103.625 51.9263 103.838 52.1921 104.111 52.3733C104.385 52.5544 104.705 52.645 105.072 52.645C105.439 52.645 105.759 52.5544 106.032 52.3733C106.306 52.1921 106.517 51.9263 106.667 51.5758C106.819 51.2252 106.894 50.7947 106.894 50.2843Z" fill="#FFCC00"/>
<path d="M121.494 48.7493C121.466 48.4646 121.345 48.2435 121.133 48.0859C120.92 47.9282 120.632 47.8494 120.267 47.8494C120.019 47.8494 119.81 47.8847 119.64 47.9553C119.469 48.0235 119.338 48.1188 119.247 48.2411C119.158 48.3635 119.114 48.5022 119.114 48.6575C119.109 48.7869 119.136 48.8998 119.194 48.9963C119.255 49.0927 119.338 49.1762 119.443 49.2468C119.548 49.315 119.67 49.375 119.808 49.4268C119.946 49.4762 120.093 49.5185 120.249 49.5538L120.894 49.7091C121.208 49.7796 121.495 49.8737 121.757 49.9914C122.018 50.109 122.245 50.2537 122.437 50.4254C122.628 50.5971 122.777 50.7994 122.882 51.0323C122.989 51.2652 123.044 51.5322 123.047 51.8334C123.044 52.2756 122.932 52.6591 122.71 52.9837C122.49 53.306 122.173 53.5566 121.757 53.7353C121.343 53.9118 120.844 54 120.26 54C119.68 54 119.176 53.9106 118.746 53.7318C118.318 53.553 117.984 53.2884 117.743 52.9379C117.505 52.585 117.38 52.1486 117.368 51.6287H118.837C118.853 51.871 118.922 52.0733 119.044 52.2356C119.168 52.3956 119.332 52.5168 119.538 52.5991C119.746 52.6791 119.981 52.7191 120.242 52.7191C120.499 52.7191 120.723 52.6814 120.912 52.6062C121.104 52.5309 121.252 52.4262 121.357 52.2921C121.462 52.158 121.515 52.0039 121.515 51.8298C121.515 51.6675 121.467 51.5311 121.371 51.4205C121.278 51.3099 121.14 51.2158 120.957 51.1382C120.778 51.0606 120.557 50.99 120.295 50.9265L119.513 50.7289C118.908 50.5807 118.43 50.3489 118.08 50.0337C117.729 49.7185 117.555 49.2939 117.558 48.7598C117.555 48.3223 117.671 47.94 117.905 47.613C118.141 47.286 118.464 47.0308 118.875 46.8473C119.287 46.6638 119.754 46.572 120.277 46.572C120.81 46.572 121.275 46.6638 121.673 46.8473C122.072 47.0308 122.383 47.286 122.605 47.613C122.827 47.94 122.941 48.3188 122.948 48.7493H121.494Z" fill="#FFCC00"/>
<path d="M126.673 47.9306V46.6708H132.568V47.9306H130.371V53.8977H128.871V47.9306H126.673Z" fill="#FFCC00"/>
<path d="M140.852 46.6708H142.37V51.364C142.37 51.891 142.245 52.3521 141.995 52.7473C141.747 53.1425 141.4 53.4507 140.954 53.6718C140.507 53.8906 139.987 54 139.394 54C138.798 54 138.277 53.8906 137.831 53.6718C137.384 53.4507 137.037 53.1425 136.79 52.7473C136.542 52.3521 136.418 51.891 136.418 51.364V46.6708H137.936V51.2335C137.936 51.5087 137.995 51.7534 138.115 51.9675C138.236 52.1815 138.407 52.3497 138.626 52.4721C138.846 52.5944 139.102 52.6556 139.394 52.6556C139.688 52.6556 139.944 52.5944 140.162 52.4721C140.381 52.3497 140.551 52.1815 140.67 51.9675C140.791 51.7534 140.852 51.5087 140.852 51.2335V46.6708Z" fill="#FFCC00"/>
<path d="M149.042 53.8977H146.497V46.6708H149.063C149.785 46.6708 150.407 46.8155 150.928 47.1049C151.449 47.3919 151.85 47.8047 152.13 48.3435C152.413 48.8822 152.554 49.5268 152.554 50.2772C152.554 51.03 152.413 51.6769 152.13 52.218C151.85 52.7591 151.447 53.1743 150.921 53.4636C150.397 53.753 149.771 53.8977 149.042 53.8977ZM148.015 52.5885H148.979C149.428 52.5885 149.805 52.5085 150.111 52.3486C150.42 52.1862 150.651 51.9357 150.805 51.5969C150.962 51.2558 151.04 50.8159 151.04 50.2772C151.04 49.7432 150.962 49.3068 150.805 48.968C150.651 48.6293 150.421 48.3799 150.115 48.22C149.808 48.06 149.431 47.98 148.982 47.98H148.015V52.5885Z" fill="#FFCC00"/>
<path d="M158.075 46.6708V53.8977H156.557V46.6708H158.075Z" fill="#FFCC00"/>
<path d="M168.799 50.2843C168.799 51.0723 168.651 51.7428 168.354 52.2956C168.059 52.8485 167.658 53.2707 167.148 53.5624C166.641 53.8518 166.071 53.9965 165.438 53.9965C164.8 53.9965 164.227 53.8506 163.72 53.5589C163.213 53.2672 162.812 52.8449 162.518 52.2921C162.224 51.7393 162.076 51.07 162.076 50.2843C162.076 49.4962 162.224 48.8257 162.518 48.2729C162.812 47.72 163.213 47.299 163.72 47.0096C164.227 46.7179 164.8 46.572 165.438 46.572C166.071 46.572 166.641 46.7179 167.148 47.0096C167.658 47.299 168.059 47.72 168.354 48.2729C168.651 48.8257 168.799 49.4962 168.799 50.2843ZM167.26 50.2843C167.26 49.7738 167.184 49.3433 167.032 48.9927C166.883 48.6422 166.671 48.3764 166.398 48.1953C166.125 48.0141 165.805 47.9235 165.438 47.9235C165.071 47.9235 164.751 48.0141 164.477 48.1953C164.204 48.3764 163.991 48.6422 163.839 48.9927C163.69 49.3433 163.615 49.7738 163.615 50.2843C163.615 50.7947 163.69 51.2252 163.839 51.5758C163.991 51.9263 164.204 52.1921 164.477 52.3733C164.751 52.5544 165.071 52.645 165.438 52.645C165.805 52.645 166.125 52.5544 166.398 52.3733C166.671 52.1921 166.883 51.9263 167.032 51.5758C167.184 51.2252 167.26 50.7947 167.26 50.2843Z" fill="#FFCC00"/>
<rect y="39" width="232" height="1" fill="#FFCC00"/>
</svg>
